<svg xmlns="http://www.w3.org/2000/svg" width="16" height="16"><path fill="#ffffff" d="M14.041 11.121c0 .366-.122.716-.338.975s-.51.404-.816.404-.6-.145-.816-.404-.338-.609-.338-.975.122-.716.338-.975.51-.404.816-.404.6.145.816.404.338.609.338.975zm-8.18 0c0 .366-.122.716-.338.975s-.51.404-.816.404-.6-.145-.816-.404-.338-.609-.338-.975c0-.761.517-1.378 1.155-1.378s1.155.617 1.155 1.378zM0 10.312c0-.24.123-.359.37-.359V4.847C.37 3.949.544 3.5.89 3.5l13.24.015c.3 0 .507.07.62.21.12.13.217.394.29.793l.47 2.635v2.8c.327 0 .49.13.49.389 0 .25-.15.374-.45.374-.073.309-.278.55-.59.464H1.03c-.273 0-.47-.075-.59-.225a6.11 6.11 0 0 0-.26-.344c-.12-.07-.18-.17-.18-.299zm1.24-6.168c-.187 0-.307.04-.36.12-.047.08-.07.259-.07.539v1.617c0 .299.027.489.08.569.06.07.19.105.39.105h2.83c.193 0 .313-.03.36-.09.053-.07.08-.245.08-.524V4.713c0-.25-.027-.404-.08-.464-.047-.07-.163-.105-.35-.105zm4.32 0c-.28 0-.443.02-.49.06-.08.07-.12.284-.12.644V6.15c0 .429.02.684.06.764.053.11.213.165.48.165h3.12c.073 0 .11-.269.11-.808V4.713c0-.289-.033-.464-.1-.524-.033-.03-.167-.045-.4-.045zm4.12 0c-.247 0-.4.055-.46.165-.06.1-.09.344-.09.734v1.273c0 .339.027.554.08.644.06.08.203.12.43.12h2.54c.28 0 .44-.015.48-.045.087-.06.13-.264.13-.614V4.638c0-.25-.03-.399-.09-.449-.033-.03-.15-.045-.35-.045zm3.87 0c-.153 0-.25.055-.29.165-.027.07-.04.24-.04.509v1.602c0 .279.027.459.08.539.06.08.183.12.37.12h1.02c.233 0 .35-.09.35-.269l-.1-.569-.27-1.557c-.04-.24-.09-.389-.15-.449s-.177-.09-.35-.09z"/></svg>
