<svg xmlns="http://www.w3.org/2000/svg" width="16" height="16" xmlns:v="https://vecta.io/nano"><path d="M2.136 1.952h.098c.391 0 .671.247.839.736v.213c0 .388-.231.669-.685.833l-.238.039c-.419 0-.71-.242-.867-.736l-.028-.194c.112-.591.405-.891.881-.891zm8.137 0h.266c1.601 0 3.041.669 4.32 1.996l.126.155-1.063 1.008c-.951-1.134-2.125-1.705-3.523-1.705-1.335 0-2.475.543-3.426 1.628-.72.891-1.077 1.851-1.077 2.868v.252c0 1.046.384 2.035 1.16 2.965.958 1.022 2.055 1.531 3.286 1.531h.154c1.286 0 2.422-.552 3.412-1.666.017 0 .357.339 1.021 1.008v.019c-.783.92-1.786 1.55-3.006 1.899-.486.116-.947.174-1.384.174h-.322c-1.23 0-2.44-.451-3.621-1.356-1.454-1.327-2.181-2.892-2.181-4.689 0-1.768.685-3.299 2.055-4.592 1.174-.993 2.44-1.492 3.803-1.492zM1.464 4.917h1.426v6.22H1.464z" fill="#fff"/></svg>