<svg height="16" width="16" xmlns="http://www.w3.org/2000/svg"><path d="m.687 3.364c-.369 0-.596.233-.683.691l.021.15c.122.383.347.572.672.572l.185-.031c.352-.128.53-.345.53-.646v-.164c-.13-.379-.346-.572-.65-.572zm6.308 0c-1.057 0-2.038.388-2.948 1.158-1.063 1.003-1.594 2.188-1.594 3.559 0 1.393.565 2.608 1.692 3.637.916.702 1.853 1.051 2.806 1.051h.249c.339 0 .697-.046 1.073-.136.946-.27 1.724-.759 2.331-1.472v-.014l-.792-.781c-.767.864-1.649 1.291-2.646 1.291h-.119c-.954 0-1.803-.394-2.545-1.186-.602-.721-.901-1.487-.901-2.299v-.195c0-.789.277-1.532.835-2.222.737-.841 1.621-1.262 2.656-1.262 1.084 0 1.993.443 2.73 1.322l.824-.781-.099-.119c-.989-1.031-2.106-1.551-3.347-1.551zm6.271 2.05c-1.265 0-1.98.797-2.148 2.387v2.689h1.075v-2.609c.148-.944.528-1.417 1.147-1.417h.138c.906 0 1.359.769 1.359 2.307v1.719h1.001v-2.755c-.163-1.548-.873-2.321-2.138-2.321zm-13.099.249v4.821h1.106v-4.821z" fill="#fff"/></svg>