<svg height="16" width="16" xmlns="http://www.w3.org/2000/svg"><path d="m13.486328 2.2441406c-.079 0-.157828.0740625-.173828.1640625l-.208984 1.1191407c-.016.0889999.033375.1621093.109375.1621093h2.347656c.079 0 .157828-.0721093.173828-.1621093l.208984-1.1191407c.017-.089-.033375-.1640625-.109375-.1640625zm-.507812 2.6425782c-.079 0-.157829.0740625-.173828.1640624l-1.625 8.1269528c-.017.089-.038938.272594.164062.308594 0 0 1.613484-.106094 2.396484-.621094.174665-.105174.286286-.288687.298828-.492187l1.458985-7.3203126c.018-.089-.033375-.1621094-.109375-.1621094zm-11.1093754.4355468c-.3078965 0-.5293552.0932939-.5507812.1699219l-.36914065 1.5976563-.4375 1.8945312-.40820313 1.771484c-.01168219.043518.03335166.08994.12109376.125.07916519.03052.19436112.052075.33789062.052735h1.4941406c.1493689 0 .2756298-.020915.3710938-.052735.1038466-.035078.1693255-.08148.1796875-.125l.4082031-1.771484.4394531-1.8945312.109375-.4765626h3.5429688c.2857537 0 .5500367.0849983.515625.2324219l-.0546875.2441407-.4375 1.8945312-.4082032 1.771484c-.0097937.04352.0321149.089937.1210938.125.0791685.030518.1924079.052072.3359375.052735h1.4960937c.146772 0 .2755638-.020915.3710938-.052735.104555-.035078.1693275-.08148.1796875-.125l.4082031-1.771484.4375004-1.8945312.195312-.8476563c.114303-.4942208-.658383-.9199219-1.783203-.9199219z" fill="#fff"/></svg>