<svg height="16" width="16" xmlns="http://www.w3.org/2000/svg"><path d="m13.372 5.862q.024 1.551-1.476 2.362.528.505.528 1.527 0 .247-.024.67l-.036.634q-.036.67.324.975l-.084.47h-1.692q-.18-.517-.18-1.151 0 1.069.084-1.292.024-.67-.324-.94-.336-.282-1.224-.282h-2.184l-.852 3.665h-1.74l.828-3.584h-2.916l.36-1.457h2.904l.564-2.503h-3.036l.36-1.457h6.564q1.728 0 2.484.552.756.552.768 1.809zm-1.728.047q-.012-.646-.528-.846-.276-.106-1.128-.106h-2.052l-.54 2.409h2.136q2.124 0 2.112-1.457z" fill="#fff"/></svg>