<svg xmlns="http://www.w3.org/2000/svg" width="16" height="16" xmlns:v="https://vecta.io/nano"><path d="M11.486 2.245c-.079 0-.157.073-.173.163l-.21 1.119c-.016.089.034.163.11.163h2.348c.079 0 .157-.073.173-.163l.21-1.119c.017-.089-.034-.163-.11-.163zM4.064 4.766c-.42.048-.42.357-.42.357l-1.229 5.692c0 .262.315.189.315.189h1.909c.273-.047.368-.52.368-.52l.727-3.969c.126-.398.525-.398.525-.398l1.776.024c.441 0 .441-.284.441-.284l.168-.827c.042-.21-.147-.236-.147-.236L4.067 4.77zm6.914.121c-.079 0-.157.073-.173.163L9.18 13.177c-.017.089-.04.273.163.309 0 0 1.614-.105 2.397-.62a.62.62 0 0 0 .299-.493l1.46-7.32c.018-.089-.034-.163-.11-.163z" fill="#fff"/></svg>